<mxfile host="app.diagrams.net" modified="2023-07-10T03:36:11.660Z" agent="Mozilla/5.0 (Macintosh; Intel Mac OS X 10_15_7) AppleWebKit/537.36 (KHTML, like Gecko) Chrome/114.0.0.0 Safari/537.36" etag="_RUYacj0YZs4XxNTPf2d" version="21.5.0" type="github">
  <diagram name="Page-1" id="s5yZ_2GMup3Xt-MT2a1m">
    <mxGraphModel dx="1352" dy="802" grid="1" gridSize="10" guides="1" tooltips="1" connect="1" arrows="1" fold="1" page="1" pageScale="0.6" pageWidth="1100" pageHeight="850" math="0" shadow="0">
      <root>
        <mxCell id="0" />
        <mxCell id="1" parent="0" />
        <mxCell id="G6QvUiHbA2aQSAkrB_02-1" value="" style="ellipse;whiteSpace=wrap;html=1;aspect=fixed;strokeWidth=5;strokeColor=#99FF99;" vertex="1" parent="1">
          <mxGeometry x="185" y="95" width="290" height="290" as="geometry" />
        </mxCell>
        <mxCell id="G6QvUiHbA2aQSAkrB_02-2" value="&lt;font style=&quot;font-size: 20px;&quot;&gt;0&lt;/font&gt;" style="text;html=1;strokeColor=none;fillColor=none;align=center;verticalAlign=middle;whiteSpace=wrap;rounded=0;" vertex="1" parent="1">
          <mxGeometry x="300" y="55" width="60" height="30" as="geometry" />
        </mxCell>
        <mxCell id="G6QvUiHbA2aQSAkrB_02-3" value="&lt;font style=&quot;font-size: 20px;&quot;&gt;90&lt;/font&gt;" style="text;html=1;strokeColor=none;fillColor=none;align=center;verticalAlign=middle;whiteSpace=wrap;rounded=0;" vertex="1" parent="1">
          <mxGeometry x="485" y="225" width="60" height="30" as="geometry" />
        </mxCell>
        <mxCell id="G6QvUiHbA2aQSAkrB_02-4" value="&lt;font style=&quot;font-size: 20px;&quot;&gt;180&lt;/font&gt;" style="text;html=1;strokeColor=none;fillColor=none;align=center;verticalAlign=middle;whiteSpace=wrap;rounded=0;" vertex="1" parent="1">
          <mxGeometry x="300" y="395" width="60" height="30" as="geometry" />
        </mxCell>
        <mxCell id="G6QvUiHbA2aQSAkrB_02-5" value="&lt;font style=&quot;font-size: 20px;&quot;&gt;270&lt;br&gt;&lt;/font&gt;" style="text;html=1;strokeColor=none;fillColor=none;align=center;verticalAlign=middle;whiteSpace=wrap;rounded=0;" vertex="1" parent="1">
          <mxGeometry x="115" y="225" width="60" height="30" as="geometry" />
        </mxCell>
        <mxCell id="G6QvUiHbA2aQSAkrB_02-6" value="" style="endArrow=none;html=1;rounded=0;strokeWidth=3;" edge="1" parent="1">
          <mxGeometry width="50" height="50" relative="1" as="geometry">
            <mxPoint x="325" y="220" as="sourcePoint" />
            <mxPoint x="325" y="270" as="targetPoint" />
          </mxGeometry>
        </mxCell>
        <mxCell id="G6QvUiHbA2aQSAkrB_02-7" value="" style="endArrow=none;html=1;rounded=0;strokeWidth=3;" edge="1" parent="1">
          <mxGeometry width="50" height="50" relative="1" as="geometry">
            <mxPoint x="325" y="220" as="sourcePoint" />
            <mxPoint x="385" y="220" as="targetPoint" />
          </mxGeometry>
        </mxCell>
        <mxCell id="G6QvUiHbA2aQSAkrB_02-8" value="&lt;font style=&quot;font-size: 14px;&quot;&gt;x&lt;/font&gt;" style="text;html=1;strokeColor=none;fillColor=none;align=center;verticalAlign=middle;whiteSpace=wrap;rounded=0;" vertex="1" parent="1">
          <mxGeometry x="365" y="205" width="60" height="30" as="geometry" />
        </mxCell>
        <mxCell id="G6QvUiHbA2aQSAkrB_02-9" value="&lt;font style=&quot;font-size: 14px;&quot;&gt;z&lt;/font&gt;" style="text;html=1;strokeColor=none;fillColor=none;align=center;verticalAlign=middle;whiteSpace=wrap;rounded=0;" vertex="1" parent="1">
          <mxGeometry x="295" y="270" width="60" height="30" as="geometry" />
        </mxCell>
        <mxCell id="G6QvUiHbA2aQSAkrB_02-10" value="" style="endArrow=none;html=1;rounded=0;strokeWidth=17;fillColor=#dae8fc;strokeColor=#6c8ebf;" edge="1" parent="1">
          <mxGeometry width="50" height="50" relative="1" as="geometry">
            <mxPoint x="30" y="455" as="sourcePoint" />
            <mxPoint x="630" y="455" as="targetPoint" />
          </mxGeometry>
        </mxCell>
      </root>
    </mxGraphModel>
  </diagram>
</mxfile>
